<svg width="390" height="116" viewBox="0 0 390 116" fill="none" xmlns="http://www.w3.org/2000/svg">
<g filter="url(#filter0_d_300_1182)">
<path d="M366 14C377.314 14 382.971 13.9999 386.485 17.5146C390 21.0294 390 26.6863 390 38V104C390 110.627 384.627 116 378 116H12C5.37258 116 0 110.627 0 104V38C0 26.6863 -7.01883e-05 21.0294 3.51465 17.5146C7.02937 13.9999 12.6863 14 24 14H142C148.627 14 153.824 19.4868 155.733 25.8331C160.812 42.7079 176.47 55 195 55C213.53 55 229.188 42.7079 234.267 25.8331C236.176 19.4868 241.373 14 248 14H366Z" fill="white"/>
</g>
<defs>
<filter id="filter0_d_300_1182" x="-12" y="0" width="414" height="126" filterUnits="userSpaceOnUse" color-interpolation-filters="sRGB">
<feFlood flood-opacity="0" result="BackgroundImageFix"/>
<feColorMatrix in="SourceAlpha" type="matrix" values="0 0 0 0 0 0 0 0 0 0 0 0 0 0 0 0 0 0 127 0" result="hardAlpha"/>
<feOffset dy="-2"/>
<feGaussianBlur stdDeviation="6"/>
<feComposite in2="hardAlpha" operator="out"/>
<feColorMatrix type="matrix" values="0 0 0 0 0 0 0 0 0 0 0 0 0 0 0 0 0 0 0.16 0"/>
<feBlend mode="normal" in2="BackgroundImageFix" result="effect1_dropShadow_300_1182"/>
<feBlend mode="normal" in="SourceGraphic" in2="effect1_dropShadow_300_1182" result="shape"/>
</filter>
</defs>
</svg>
