<svg width="43" height="43" viewBox="0 0 43 43" fill="none" xmlns="http://www.w3.org/2000/svg">
<path fill-rule="evenodd" clip-rule="evenodd" d="M34.8947 4.11945e-07C35.5202 -0.000452211 36.0856 0.372118 36.332 0.947001L37.2265 3.0341C37.7261 4.20839 38.8813 5.29916 40.5757 5.9318L41.6924 6.3487C42.3033 6.5768 42.7083 7.16036 42.7083 7.8125C42.7083 8.46464 42.3033 9.0482 41.6924 9.2763L40.847 9.59191C38.9787 10.2895 37.6899 11.497 37.1277 12.8139L36.3329 14.6759C36.0872 15.2515 35.5217 15.625 34.8958 15.625C34.27 15.625 33.7045 15.2515 33.4588 14.6759L32.664 12.8139C32.1018 11.497 30.813 10.2895 28.9446 9.59191L28.0993 9.2763C27.4884 9.0482 27.0833 8.46464 27.0833 7.8125C27.0833 7.16036 27.4884 6.5768 28.0993 6.3487L28.9446 6.03309C30.813 5.33551 32.1018 4.12805 32.664 2.81111L33.4588 0.949082C33.7043 0.373842 34.2692 0.000453531 34.8947 4.11945e-07ZM32.2989 7.8125C33.3475 8.51052 34.2375 9.37991 34.8958 10.3883C35.5457 9.3929 36.4212 8.53293 37.4524 7.83955C36.4011 7.1537 35.5146 6.28369 34.8772 5.26507C34.2208 6.2614 33.3377 7.12104 32.2989 7.8125Z" fill="black"/>
<path d="M0 10.9375C0 6.04748 3.96415 2.08333 8.85417 2.08333H24.4792C25.3421 2.08333 26.0417 2.78289 26.0417 3.64583C26.0417 4.50878 25.3421 5.20833 24.4792 5.20833H8.85417C5.69003 5.20833 3.125 7.77337 3.125 10.9375V33.8542C3.125 37.0183 5.69003 39.5833 8.85417 39.5833H31.7708C34.935 39.5833 37.5 37.0183 37.5 33.8542V18.2292C37.5 17.3662 38.1996 16.6667 39.0625 16.6667C39.9254 16.6667 40.625 17.3662 40.625 18.2292V33.8542C40.625 38.7442 36.6609 42.7083 31.7708 42.7083H8.85417C3.96414 42.7083 0 38.7442 0 33.8542V10.9375Z" fill="black"/>
<path fill-rule="evenodd" clip-rule="evenodd" d="M20.4628 28.9959V26.1495H13.631L11.8072 29.7085C11.4137 30.4765 10.4721 30.78 9.70408 30.3865C8.9361 29.9929 8.63257 29.0513 9.02612 28.2834L14.9924 16.6406C15.7706 15.122 17.3334 14.1668 19.0399 14.1668C21.5516 14.1668 23.5878 16.2029 23.5878 18.7147V28.9959C23.5878 29.8589 22.8882 30.5584 22.0253 30.5584C21.1623 30.5584 20.4628 29.8589 20.4628 28.9959ZM17.7735 18.0658C18.017 17.5906 18.506 17.2918 19.0399 17.2918C19.8257 17.2918 20.4628 17.9288 20.4628 18.7147V23.0245H15.2324L17.7735 18.0658Z" fill="black"/>
<path d="M30.7292 18.2292C30.7292 17.3662 30.0296 16.6667 29.1667 16.6667C28.3037 16.6667 27.6042 17.3662 27.6042 18.2292V28.9965C27.6042 29.8594 28.3037 30.559 29.1667 30.559C30.0296 30.559 30.7292 29.8594 30.7292 28.9965V18.2292Z" fill="black"/>
</svg>
