<svg width="36" height="36" viewBox="0 0 36 36" fill="none" xmlns="http://www.w3.org/2000/svg">
<rect x="0.349951" y="0.350012" width="34.7" height="34.7" rx="17.35" fill="#EAFFD3"/>
<rect x="0.349951" y="0.350012" width="34.7" height="34.7" rx="17.35" stroke="#519E00" stroke-width="0.7"/>
<g clip-path="url(#clip0_206_1308)">
<path d="M17.7 9.70001C13.2886 9.70001 9.69995 13.2887 9.69995 17.7C9.69995 22.1113 13.2886 25.7 17.7 25.7C22.1113 25.7 25.7 22.1113 25.7 17.7C25.7 13.2887 22.1113 9.70001 17.7 9.70001ZM17.6393 19.9793C17.3813 20.2373 17.042 20.366 16.7013 20.366C16.3606 20.366 16.018 20.236 15.7573 19.976L13.9026 18.1787L14.8313 17.2207L16.6933 19.0253L20.566 15.2247L21.502 16.1747L17.6393 19.9793Z" fill="#519E00"/>
</g>
<defs>
<clipPath id="clip0_206_1308">
<rect width="16" height="16" fill="white" transform="translate(9.69995 9.70001)"/>
</clipPath>
</defs>
</svg>
