<svg width="21" height="20" viewBox="0 0 21 20" fill="none" xmlns="http://www.w3.org/2000/svg">
<path d="M5.61621 6.75C5.61621 6.33579 5.952 6 6.36621 6H6.61621C7.03042 6 7.36621 6.33579 7.36621 6.75C7.36621 7.16421 7.03042 7.5 6.61621 7.5H6.36621C5.952 7.5 5.61621 7.16421 5.61621 6.75Z" fill="#171829"/>
<path d="M6.36621 10C5.952 10 5.61621 10.3358 5.61621 10.75C5.61621 11.1642 5.952 11.5 6.36621 11.5H6.61621C7.03042 11.5 7.36621 11.1642 7.36621 10.75C7.36621 10.3358 7.03042 10 6.61621 10H6.36621Z" fill="#171829"/>
<path d="M9.61621 6.75C9.61621 6.33579 9.952 6 10.3662 6H10.6162C11.0304 6 11.3662 6.33579 11.3662 6.75C11.3662 7.16421 11.0304 7.5 10.6162 7.5H10.3662C9.952 7.5 9.61621 7.16421 9.61621 6.75Z" fill="#171829"/>
<path d="M10.3662 10C9.952 10 9.61621 10.3358 9.61621 10.75C9.61621 11.1642 9.952 11.5 10.3662 11.5H10.6162C11.0304 11.5 11.3662 11.1642 11.3662 10.75C11.3662 10.3358 11.0304 10 10.6162 10H10.3662Z" fill="#171829"/>
<path d="M13.6162 6.75C13.6162 6.33579 13.952 6 14.3662 6H14.6162C15.0304 6 15.3662 6.33579 15.3662 6.75C15.3662 7.16421 15.0304 7.5 14.6162 7.5H14.3662C13.952 7.5 13.6162 7.16421 13.6162 6.75Z" fill="#171829"/>
<path d="M14.3662 10C13.952 10 13.6162 10.3358 13.6162 10.75C13.6162 11.1642 13.952 11.5 14.3662 11.5H14.6162C15.0304 11.5 15.3662 11.1642 15.3662 10.75C15.3662 10.3358 15.0304 10 14.6162 10H14.3662Z" fill="#171829"/>
<path fill-rule="evenodd" clip-rule="evenodd" d="M8.11621 0.75C8.11621 0.335786 7.78042 0 7.36621 0C6.952 0 6.61621 0.335786 6.61621 0.75V1H5.36654C3.01933 1 1.11654 2.90279 1.11654 5.25V8.85652C1.11654 10.3297 0.807401 11.7864 0.209101 13.1326C-0.303299 14.2855 0.171704 15.5444 1.13667 16.144C1.33358 18.0299 2.92821 19.5 4.86621 19.5H16.3662C18.7134 19.5 20.6162 17.5972 20.6162 15.25V10.107C20.6164 10.0772 20.6165 10.0474 20.6165 10.0176V5.25C20.6165 2.90279 18.7138 1 16.3665 1H15.1162V0.75C15.1162 0.335786 14.7804 0 14.3662 0C13.952 0 13.6162 0.335786 13.6162 0.75V1H8.11621V0.75ZM6.61621 2.5V2.75C6.61621 3.16421 6.952 3.5 7.36621 3.5C7.78042 3.5 8.11621 3.16421 8.11621 2.75V2.5H13.6162V2.75C13.6162 3.16421 13.952 3.5 14.3662 3.5C14.7804 3.5 15.1162 3.16421 15.1162 2.75V2.5H16.3665C17.8853 2.5 19.1165 3.73122 19.1165 5.25L19.1162 10.1012C19.1103 10.8376 19.0268 11.5714 18.8671 12.2904C18.5152 13.8736 17.111 15 15.4892 15H2.39749C1.74997 15 1.31683 14.3335 1.57982 13.7418C2.26336 12.2038 2.61654 10.5395 2.61654 8.85652V5.25C2.61654 3.73122 3.84776 2.5 5.36654 2.5H6.61621ZM19.1162 15.25V14.9236C18.2022 15.9025 16.9034 16.5 15.4892 16.5H2.74424C3.05312 17.3739 3.88655 18 4.86621 18H16.3662C17.885 18 19.1162 16.7688 19.1162 15.25Z" fill="#171829"/>
</svg>
