<svg width="34" height="34" viewBox="0 0 34 34" fill="none" xmlns="http://www.w3.org/2000/svg">
<rect x="0.35" y="0.35" width="33.3" height="33.3" rx="7.65" fill="#FFE6E6"/>
<rect x="0.35" y="0.35" width="33.3" height="33.3" rx="7.65" stroke="#FF5A5A" stroke-width="0.7"/>
<path d="M23.2803 11.2803C23.5732 10.9874 23.5732 10.5126 23.2803 10.2197C22.9874 9.92678 22.5126 9.92678 22.2197 10.2197L16.75 15.6893L11.2803 10.2197C10.9874 9.92678 10.5126 9.92678 10.2197 10.2197C9.92678 10.5126 9.92678 10.9874 10.2197 11.2803L15.6893 16.75L10.2197 22.2197C9.92678 22.5126 9.92678 22.9874 10.2197 23.2803C10.5126 23.5732 10.9874 23.5732 11.2803 23.2803L16.75 17.8107L22.2197 23.2803C22.5126 23.5732 22.9874 23.5732 23.2803 23.2803C23.5732 22.9874 23.5732 22.5126 23.2803 22.2197L17.8107 16.75L23.2803 11.2803Z" fill="#FF5A5A"/>
</svg>
