<svg width="24" height="24" viewBox="0 0 24 24" fill="none" xmlns="http://www.w3.org/2000/svg">
<path d="M4.79004 7C4.79004 4.37665 6.91669 2.25 9.54004 2.25C12.1634 2.25 14.29 4.37665 14.29 7C14.29 9.62335 12.1634 11.75 9.54004 11.75C6.91669 11.75 4.79004 9.62335 4.79004 7Z" fill="#2DADBE"/>
<path d="M3.02378 15.0984C3.69758 13.9532 4.92712 13.25 6.25589 13.25H12.8245C14.1533 13.25 15.3828 13.9532 16.0566 15.0984L16.7184 16.2233C17.2407 17.111 17.4648 18.1478 17.2509 19.0798C17.0276 20.0525 16.336 20.8451 15.204 21.1375C12.0429 21.9542 7.03752 21.9542 3.87635 21.1375C2.74444 20.8451 2.0528 20.0525 1.82954 19.0798C1.61564 18.1478 1.83969 17.111 2.36201 16.2233L3.02378 15.0984Z" fill="#2DADBE"/>
<path d="M14.9353 10.6741C14.7922 10.655 14.7271 10.4905 14.805 10.3689C15.4283 9.39676 15.7898 8.24059 15.7898 7C15.7898 5.36895 15.165 3.88383 14.1417 2.77091C14.0441 2.66479 14.0797 2.49174 14.2171 2.44807C14.6218 2.31942 15.0529 2.25 15.5002 2.25C17.8367 2.25 19.7309 4.14416 19.7309 6.48073C19.7309 8.39594 18.4589 10.0121 16.7153 10.5342C16.3295 10.6497 15.9214 10.7115 15.5002 10.7115C15.3086 10.7115 15.1201 10.6987 14.9353 10.6741Z" fill="#2DADBE"/>
<path d="M19.0289 19.1634C18.8945 19.1839 18.7808 19.0654 18.7971 18.9304C18.9447 17.7035 18.6049 16.472 18.011 15.4626L17.3492 14.3378C16.7635 13.3422 15.8777 12.5853 14.845 12.1544C14.7318 12.1072 14.7719 11.822 14.8946 11.822H18.1448C19.4677 11.822 20.6918 12.5221 21.3626 13.6623L21.6478 14.1471C22.1678 15.0309 22.3874 16.0613 22.1623 16.982C21.9265 17.9469 21.2155 18.7118 20.0805 18.9671C19.7477 19.0419 19.3956 19.1074 19.0289 19.1634Z" fill="#2DADBE"/>
</svg>
