<svg width="18" height="19" viewBox="0 0 18 19" fill="none" xmlns="http://www.w3.org/2000/svg">
<path d="M5.83036 2.44705C6.2495 0.99004 7.55043 0 8.99984 0C10.4493 0 11.7502 0.99004 12.1693 2.44705L12.1875 2.51016C13.5766 2.67173 14.9572 2.93925 16.3181 3.31273L17.5089 3.63953C17.8606 3.73605 18.0707 4.11164 17.9782 4.47843C17.8856 4.84522 17.5254 5.06432 17.1737 4.96779L15.9829 4.641C11.4056 3.38481 6.59444 3.38481 2.01708 4.64099L0.826277 4.96779C0.474558 5.06432 0.114401 4.84522 0.0218438 4.47843C-0.0707137 4.11164 0.139378 3.73605 0.491096 3.63953L1.6819 3.31273C3.04268 2.93928 4.42317 2.67177 5.81219 2.5102L5.83036 2.44705Z" fill="#FF0404"/>
<path d="M15.6476 5.96926C11.29 4.77337 6.70981 4.77337 2.35217 5.96926L1.52515 6.19622C1.44033 6.2195 1.38498 6.30448 1.3955 6.39528L2.50527 15.978C2.705 17.7026 4.10837 19 5.77414 19H12.2257C13.8914 19 15.2948 17.7026 15.4945 15.978L16.6043 6.39528C16.6148 6.30448 16.5595 6.2195 16.4747 6.19622L15.6476 5.96926Z" fill="#FF0404"/>
</svg>
