<svg width="34" height="34" viewBox="0 0 34 34" fill="none" xmlns="http://www.w3.org/2000/svg">
<rect x="0.35" y="0.35" width="33.3" height="33.3" rx="7.65" fill="#FFE6E6"/>
<rect x="0.35" y="0.35" width="33.3" height="33.3" rx="7.65" stroke="#FF5A5A" stroke-width="0.7"/>
<path d="M13.4782 9.57584C13.9439 8.04215 15.3894 7 16.9998 7C18.6103 7 20.0558 8.04215 20.5215 9.57584L20.5416 9.64227C22.0851 9.81235 23.6191 10.094 25.1312 10.4871L26.4543 10.8311C26.8451 10.9327 27.0786 11.328 26.9757 11.7141C26.8729 12.1002 26.4727 12.3309 26.0819 12.2293L24.7588 11.8853C19.6728 10.563 14.3272 10.563 9.2412 11.8853L7.91809 12.2293C7.52729 12.3309 7.12711 12.1002 7.02427 11.7141C6.92143 11.328 7.15486 10.9327 7.54566 10.8311L8.86878 10.4871C10.3808 10.094 11.9146 9.81239 13.458 9.64231L13.4782 9.57584Z" fill="#FF0404"/>
<path d="M24.3863 13.2834C19.5444 12.0246 14.4553 12.0246 9.61352 13.2834L8.69461 13.5223C8.60036 13.5468 8.53887 13.6363 8.55055 13.7319L9.78364 23.8189C10.0056 25.6343 11.5649 27 13.4157 27H20.5841C22.4349 27 23.9942 25.6343 24.2162 23.8189L25.4492 13.7319C25.4609 13.6363 25.3994 13.5468 25.3052 13.5223L24.3863 13.2834Z" fill="#FF0404"/>
</svg>
