<svg width="42" height="42" viewBox="0 0 42 42" fill="none" xmlns="http://www.w3.org/2000/svg">
<path fill-rule="evenodd" clip-rule="evenodd" d="M4.25366 10.608C-1.09256 12.5485 -1.49936 19.9531 3.6021 22.4675L14.4868 27.8325C14.7215 27.9482 14.9182 28.1285 15.054 28.3522L21.3477 38.7275C24.2975 43.5902 31.6385 42.5392 33.1053 37.0441L40.8228 8.13212C42.1685 3.09054 37.2874 -1.3819 32.3824 0.398411L4.25366 10.608ZM17.8896 27.0015L25.3624 18.8459C25.9454 18.2097 25.9022 17.2213 25.2659 16.6383C24.6297 16.0554 23.6413 16.0985 23.0583 16.7348L15.5857 24.8902L4.98367 19.6645C2.35152 18.3672 2.56142 14.5467 5.31985 13.5455L33.4486 3.3359C35.9794 2.41733 38.4978 4.72494 37.8035 7.32617L30.086 36.2382C29.3292 39.0734 25.5415 39.6157 24.0196 37.1067L17.8896 27.0015Z" fill="black"/>
</svg>
