<svg width="24" height="24" viewBox="0 0 24 24" fill="none" xmlns="http://www.w3.org/2000/svg">
<path fill-rule="evenodd" clip-rule="evenodd" d="M6.79283 2.38828C4.2368 1.02865 1.3301 3.45888 2.13734 6.28063L3.8597 12.3012C3.89684 12.431 3.89684 12.569 3.8597 12.6988L2.13734 18.7194C1.3301 21.5411 4.23681 23.9713 6.79283 22.6117L20.2412 15.4581C22.5863 14.2107 22.5863 10.7893 20.2412 9.54188L6.79283 2.38828ZM5.33558 13.3077H10.9426C11.3801 13.3077 11.7347 12.9462 11.7347 12.5002C11.7347 12.0542 11.3801 11.6927 10.9426 11.6927H5.33569L3.65805 5.82842C3.24155 4.37252 4.74129 3.11862 6.06009 3.82013L19.5085 10.9737C20.7184 11.6174 20.7184 13.3827 19.5085 14.0263L6.06009 21.1799C4.74129 21.8814 3.24155 20.6275 3.65805 19.1716L5.33558 13.3077Z" fill="black"/>
</svg>
