<svg width="16" height="17" viewBox="0 0 16 17" fill="none" xmlns="http://www.w3.org/2000/svg">
<path fill-rule="evenodd" clip-rule="evenodd" d="M8.01248 0.899853C9.21409 -0.29995 11.1623 -0.299952 12.3639 0.899852L13.5243 2.05848C14.7259 3.25829 14.7259 5.20355 13.5243 6.40336L6.57051 13.3467C6.28021 13.6365 5.90144 13.8215 5.49407 13.8723L1.67866 14.3485C1.23337 14.4041 0.787323 14.2513 0.470006 13.9345C0.152688 13.6176 -0.000354424 13.1723 0.0553069 12.7276L0.532233 8.91797C0.583154 8.51122 0.768407 8.13301 1.0587 7.84315L8.01248 0.899853ZM11.4936 1.76883C10.7727 1.04895 9.60373 1.04895 8.88276 1.76883L8.55592 2.09518L12.3272 5.86074L12.654 5.53438C13.375 4.8145 13.375 3.64734 12.654 2.92746L11.4936 1.76883ZM1.92899 8.71213L7.68563 2.96416L11.4569 6.72971L5.70022 12.4777C5.60346 12.5743 5.4772 12.636 5.34141 12.6529L1.526 13.1291C1.45758 13.1377 1.38905 13.1142 1.34029 13.0655C1.29153 13.0168 1.26802 12.9484 1.27657 12.8801L1.7535 9.0704C1.77047 8.93482 1.83222 8.80875 1.92899 8.71213Z" fill="currentColor"/>
<path d="M0.615385 15.7711C0.275517 15.7711 0 16.0462 0 16.3855C0 16.7249 0.275517 17 0.615385 17H15.3846C15.7245 17 16 16.7249 16 16.3855C16 16.0462 15.7245 15.7711 15.3846 15.7711H0.615385Z" fill="currentColor"/>
</svg>
