<svg width="18" height="19" viewBox="0 0 18 19" fill="none" xmlns="http://www.w3.org/2000/svg">
<path fill-rule="evenodd" clip-rule="evenodd" d="M9.01404 1.00572C10.3659 -0.335238 12.5576 -0.33524 13.9094 1.00572L15.2148 2.30066C16.5666 3.64162 16.5666 5.81574 15.2148 7.15669L7.39182 14.9169C7.06524 15.2408 6.63912 15.4476 6.18083 15.5044L1.88849 16.0366C1.38754 16.0987 0.885739 15.9279 0.528757 15.5738C0.171774 15.2197 -0.000398728 14.7219 0.0622203 14.225L0.598762 9.96715C0.656048 9.51254 0.864458 9.08984 1.19104 8.76588L9.01404 1.00572ZM12.9303 1.97692C12.1192 1.17235 10.8042 1.17235 9.99311 1.97693L9.62541 2.34167L13.868 6.55024L14.2357 6.18549C15.0468 5.38091 15.0468 4.07644 14.2358 3.27187L12.9303 1.97692ZM2.17011 9.73708L8.64634 3.31288L12.889 7.52144L6.41275 13.9456C6.30389 14.0536 6.16185 14.1225 6.00909 14.1415L1.71675 14.6737C1.63978 14.6833 1.56268 14.657 1.50783 14.6026C1.45298 14.5482 1.42652 14.4717 1.43614 14.3954L1.97269 10.1375C1.99178 9.98597 2.06125 9.84507 2.17011 9.73708Z" fill="#2DADBE"/>
<path d="M0.692308 17.6265C0.309957 17.6265 0 17.934 0 18.3133C0 18.6925 0.309957 19 0.692308 19H17.3077C17.69 19 18 18.6925 18 18.3133C18 17.934 17.69 17.6265 17.3077 17.6265H0.692308Z" fill="#2DADBE"/>
</svg>
