<svg width="24" height="24" viewBox="0 0 24 24" fill="none" xmlns="http://www.w3.org/2000/svg">
<path d="M10.375 2.23538C11.3457 1.58821 12.6104 1.58821 13.5812 2.23538L21.7947 7.71109C23.1051 8.58467 23.0589 10.5253 21.7085 11.3356C20.9642 11.7821 20.0818 11.7067 19.4053 11.3421C17.6386 10.3898 15.0221 9.89052 12.2442 9.90728C9.47465 9.92399 6.64576 10.4533 4.47787 11.4646C3.80934 11.7765 2.99589 11.7845 2.31606 11.3767C0.933834 10.5473 0.886572 8.56097 2.22778 7.66683L10.375 2.23538Z" fill="#2DADBE"/>
<path d="M18.6936 12.6625C17.2286 11.8728 14.8901 11.3913 12.2532 11.4072C9.64152 11.423 7.03742 11.9258 5.11204 12.824C4.16901 13.2639 3.25 14.0608 3.25 15.1014V17.7549C3.25 20.2384 5.26546 22.25 7.74969 22.25H9.25V19.25C9.25 17.7312 10.4812 16.5 12 16.5C13.5188 16.5 14.75 17.7312 14.75 19.25V22.25H16.2503C18.7345 22.25 20.75 20.2384 20.75 17.7549V15.1226C20.75 14.0417 19.8015 13.2081 18.8306 12.7329C18.7842 12.7102 18.7386 12.6867 18.6936 12.6625Z" fill="#2DADBE"/>
<path d="M13.25 22.25V19.25C13.25 18.5596 12.6904 18 12 18C11.3096 18 10.75 18.5596 10.75 19.25V22.25H13.25Z" fill="#2DADBE"/>
</svg>
