<svg width="20" height="19" viewBox="0 0 20 19" fill="none" xmlns="http://www.w3.org/2000/svg">
<path fill-rule="evenodd" clip-rule="evenodd" d="M8.48833 0.449863C9.39136 -0.149955 10.5678 -0.149954 11.4708 0.449864L19.1114 5.52491C20.3303 6.33457 20.2873 8.13324 19.0311 8.88422C18.7481 9.0534 18.4436 9.14174 18.1395 9.16397V14.8339C18.1395 17.1356 16.2647 19 13.9538 19H6.04623C3.73531 19 1.86047 17.1356 1.86047 14.8339V9.20481C1.5616 9.17706 1.26503 9.08567 0.991682 8.92226C-0.294108 8.15361 -0.338072 6.3126 0.909563 5.48389L8.48833 0.449863ZM10.6968 1.60662C10.2625 1.31812 9.69666 1.31812 9.26233 1.60662L1.68356 6.64064C1.28823 6.90323 1.30216 7.48658 1.70958 7.73014C1.90147 7.84485 2.16351 7.85976 2.41275 7.74391C4.65499 6.7017 7.49564 6.18655 10.2187 6.17019C12.934 6.15387 15.6266 6.63312 17.5507 7.6664C17.8311 7.81699 18.1193 7.808 18.3132 7.69209C18.6911 7.46621 18.704 6.9252 18.3374 6.68166L10.6968 1.60662ZM10.2271 7.5604C12.7365 7.54532 15.1044 7.98128 16.7442 8.81473V14.8339C16.7442 16.3661 15.4957 17.6098 13.9538 17.6098H12.5581V16.2195C12.5581 14.8119 11.4128 13.6707 10 13.6707C8.58718 13.6707 7.44186 14.8119 7.44186 16.2195V17.6098H6.04623C4.50431 17.6098 3.25582 16.3661 3.25582 14.8339V8.88987C5.23673 8.02671 7.75731 7.57525 10.2271 7.5604ZM8.83721 17.6098H11.1628V16.2195C11.1628 15.5797 10.6422 15.061 10 15.061C9.35781 15.061 8.83721 15.5797 8.83721 16.2195V17.6098Z" fill="black"/>
</svg>
