<svg width="76" height="90" viewBox="0 0 76 90" fill="none" xmlns="http://www.w3.org/2000/svg">
<path d="M75.7396 37.2089C75.7396 37.2089 75.738 37.2105 75.7369 37.2111L75.7396 37.2073L69.2491 34.6061C69.5524 23.2436 69.7403 12.1882 69.595 6.77584C47.0817 -4.4499 22.4906 0.595685 9.76748 5.39168C8.52227 5.85831 7.3918 6.32549 6.3859 6.77584C6.29302 10.1812 6.44273 22.0011 6.72849 34.6403L0.336331 37.2067L0.338517 37.2116L0.335786 37.2089C-0.0434055 46.3169 -0.0723645 54.0082 0.104664 60.528C0.446701 73.1829 1.54821 81.4353 2.2984 87.1483C25.9951 90.8303 50.1125 91.0674 73.7721 87.1483C73.9327 85.9318 74.2546 83.5812 74.6092 80.1531C75.467 71.8395 76.4898 57.2149 75.7391 37.2084L75.7396 37.2089Z" fill="#E5E7FF"/>
<path d="M75.7396 37.209C75.7396 37.209 75.738 37.2107 75.7369 37.2112L75.7396 37.2074L69.2491 34.6062C69.2081 36.1401 69.165 37.6795 69.1207 39.2117C69.0918 40.2166 69.0623 41.2177 69.0322 42.2123C67.581 43.2373 66.1681 44.1971 64.7966 45.0962C64.6103 45.2183 64.4245 45.3398 64.2393 45.4597C48.2461 55.8385 38.0008 57.8873 38.0008 57.8873C26.7218 54.1993 17.943 49.6203 11.7093 45.7088C11.5219 45.591 11.3367 45.4744 11.1537 45.3577C9.57024 44.3501 8.15892 43.3908 6.92191 42.5075C6.85252 39.8949 6.7875 37.2503 6.72849 34.6409L0.336331 37.2074L0.338517 37.2123L0.335786 37.2096C-0.0434055 46.3176 -0.0723645 54.0089 0.104664 60.5287C0.446701 73.1836 1.54821 81.4359 2.2984 87.1489C25.9951 90.831 50.1125 91.0681 73.7721 87.1489C73.9327 85.9324 74.2546 83.5819 74.6092 80.1538C75.467 71.8402 76.4898 57.2156 75.7391 37.209H75.7396Z" fill="#262843"/>
<path d="M64.9249 40.9366C65.2101 31.3647 65.4424 21.0917 65.4424 14.4477C65.4424 12.8253 65.4287 11.4194 65.3981 10.2914L65.3937 10.1302L65.2495 10.057C56.586 5.67498 47.5679 4.12695 39.2673 4.12695C27.1282 4.12804 16.5223 7.43299 10.7421 10.0521L10.5875 10.1221L10.5831 10.2908C10.5673 10.8844 10.5596 11.7645 10.5596 12.8817C10.5596 14.3315 10.5722 16.1807 10.5963 18.3164C9.87284 15.8579 9.45649 13.3017 9.39694 10.6902C9.35541 8.91698 9.48327 7.13944 9.76794 5.39066C8.52272 5.85729 7.39225 6.32446 6.38636 6.77482C6.29347 10.1801 6.44318 22 6.72894 34.6392C6.78795 37.2486 6.85243 39.8932 6.92236 42.5058C8.15992 43.3891 9.57069 44.3484 11.1541 45.356C11.3372 45.4727 11.5224 45.5893 11.7098 45.7071C17.9435 49.6181 26.7223 54.1976 38.0013 57.8856C38.0013 57.8856 48.2465 55.8368 64.2398 45.458C64.425 45.3381 64.6102 45.2171 64.7971 45.0945C66.1685 44.1954 67.5815 43.235 69.0326 42.2106C69.0627 41.216 69.0922 40.2149 69.1212 39.2101C67.7607 39.8509 66.3592 40.426 64.9255 40.935L64.9249 40.9366ZM64.3736 41.1287C58.8191 43.0245 52.8083 43.9306 46.8625 43.7662C44.2869 45.311 41.267 46.2003 38.0384 46.2003C30.6885 46.2003 24.4214 41.5937 22.0075 35.1276C17.1266 31.146 13.2703 25.9176 11.1618 20.0505C11.1246 17.1753 11.1044 14.7097 11.1044 12.8828C11.1044 11.8709 11.1104 11.0548 11.1235 10.4753C16.8704 7.89636 27.338 4.66792 39.2667 4.669C47.4537 4.669 56.3287 6.18719 64.8566 10.4672C64.8839 11.56 64.8965 12.9056 64.8965 14.4477C64.8965 21.1286 64.6616 31.5003 64.3731 41.1281L64.3736 41.1287Z" fill="#D9DBFF"/>
<path d="M54.5405 33.1048C54.8382 31.859 54.9934 30.5606 54.9934 29.2275C54.9934 19.929 47.4019 12.3896 38.038 12.3896C31.73 12.3896 26.2241 15.8123 23.3058 20.891C23.2403 20.8547 23.1572 20.8775 23.1201 20.9426C21.735 23.3929 20.9465 26.2177 20.9465 29.2275C20.9465 31.3023 21.3214 33.2904 22.0076 35.1276C24.4215 41.5937 30.688 46.2004 38.0385 46.2004C41.2677 46.2004 44.287 45.3111 46.8627 43.7663C50.6983 41.4657 53.5493 37.7109 54.641 33.2682C54.659 33.1955 54.6142 33.1222 54.541 33.1048H54.5405Z" fill="#519E00"/>
<path d="M54.5405 33.1046C54.4672 33.0873 54.394 33.1318 54.376 33.2039C54.358 33.2777 54.3388 33.3515 54.3197 33.4248C50.9474 36.7476 46.1431 38.6179 41.3775 38.4714C40.093 38.4324 38.8177 38.2495 37.5747 37.9375C40.7011 31.3477 44.2739 24.7655 48.5805 19.0672C48.6258 19.0075 48.6133 18.9223 48.5532 18.8778C48.4964 18.8355 48.4177 18.8436 48.3707 18.8946C48.3679 18.8979 48.3652 18.9011 48.3625 18.9044C42.8915 26.1448 38.6095 34.7888 34.9236 43.0634C34.6521 42.7227 34.1609 42.1361 33.5325 41.3993C31.2519 38.7237 27.1868 34.0867 25.5373 32.3087C25.5263 32.2967 25.5132 32.2875 25.4996 32.2804C25.8279 31.6608 26.2421 31.0672 26.7213 30.5241C24.7953 27.7948 23.6194 24.562 23.2632 21.2446C23.2944 21.1876 23.326 21.1312 23.3577 21.0748C23.3943 21.0097 23.3714 20.9272 23.3058 20.8908C23.2403 20.8545 23.1572 20.8773 23.1201 20.9424C21.735 23.3927 20.9465 26.2175 20.9465 29.2273C20.9465 31.3021 21.3214 33.2902 22.0076 35.1274C24.4215 41.5935 30.688 46.2002 38.0385 46.2002C41.2677 46.2002 44.287 45.3109 46.8627 43.7661C50.6983 41.4655 53.5493 37.7107 54.641 33.268C54.659 33.1952 54.6142 33.122 54.541 33.1046H54.5405Z" fill="#366702"/>
<path d="M69.0316 42.2123C71.1849 40.6919 73.4229 39.0289 75.7368 37.2112L75.7396 37.2074L69.2491 34.6062C69.2081 36.1401 69.1649 37.6795 69.1207 39.2117C69.0917 40.2166 69.0622 41.2177 69.0322 42.2123H69.0316Z" fill="#171829"/>
<path d="M6.72846 34.6409L0.336304 37.2073L0.33849 37.2122C0.428097 37.3001 2.63331 39.4472 6.92133 42.5074C6.85194 39.8948 6.78692 37.2502 6.72791 34.6409H6.72846Z" fill="#171829"/>
<path d="M65.4419 14.4481C65.4419 12.8258 65.4283 11.4199 65.3977 10.2919L65.3933 10.1307L65.249 10.0575C56.5856 5.67546 47.5675 4.12744 39.2668 4.12744C27.1278 4.12853 16.5219 7.43347 10.7417 10.0526L10.5871 10.1226L10.5827 10.2913C10.5669 10.8849 10.5592 11.765 10.5592 12.8822C10.5592 14.332 10.5718 16.1812 10.5958 18.3168C10.6597 24.0819 10.8051 31.9333 10.999 39.6414C11.0477 41.5676 11.099 43.484 11.1537 45.3571C11.3367 45.4737 11.5219 45.5904 11.7093 45.7081C11.6514 43.7195 11.5962 41.6783 11.5443 39.6278C11.3689 32.6723 11.234 25.5985 11.1619 20.0499C11.1247 17.1747 11.1045 14.7091 11.1045 12.8822C11.1045 11.8703 11.1105 11.0542 11.1236 10.4747C16.8705 7.89576 27.3381 4.66732 39.2668 4.66841C47.4538 4.66841 56.3288 6.18659 64.8567 10.4666C64.8841 11.5594 64.8966 12.905 64.8966 14.4471C64.8966 21.128 64.6617 31.4997 64.3732 41.1275C64.3491 41.9213 64.3251 42.7103 64.3011 43.4916C64.2803 44.153 64.2595 44.809 64.2388 45.458C64.424 45.3381 64.6092 45.2171 64.7961 45.0944C64.8398 43.7325 64.883 42.3413 64.9245 40.9349C65.2097 31.363 65.4419 21.09 65.4419 14.446V14.4481Z" fill="white"/>
<path d="M2.78138 43.8113C2.824 43.8656 9.57021 52.4641 37.9483 62.304C37.9986 62.3214 38.0538 62.3236 38.1052 62.3105C38.1281 62.304 55.5572 57.9041 72.6645 43.8536C72.7804 43.7581 72.7968 43.5878 72.7006 43.4727C72.6044 43.3577 72.4329 43.3414 72.317 43.4369C63.8126 50.4228 55.2212 55.0121 48.7575 57.8537C45.5256 59.2747 42.8265 60.2584 40.936 60.8868C39.9907 61.2009 39.2482 61.4261 38.7422 61.5726C38.4893 61.6459 38.2958 61.6996 38.1658 61.7348C38.1183 61.7479 38.0795 61.7582 38.0494 61.7658C23.9396 56.8672 15.222 52.2861 10.0363 48.9339C7.43876 47.2552 5.72694 45.8846 4.66805 44.9372C4.1386 44.4635 3.77197 44.0956 3.53867 43.8482C3.42229 43.7245 3.33924 43.6306 3.28569 43.5682C3.25892 43.5373 3.2398 43.514 3.22778 43.4993L3.21466 43.483L3.21193 43.4792C3.11959 43.361 2.94857 43.3398 2.82946 43.4315C2.71035 43.5232 2.68904 43.693 2.78138 43.8113Z" fill="#171829"/>
<path d="M26.9278 79.9855C19.7232 77.4093 12.7906 73.8341 7.11206 68.7354C4.4315 66.3273 2.03943 63.5672 0.105225 60.5281C0.447262 73.183 1.54877 81.4353 2.29896 87.1483C25.9957 90.8304 50.1131 91.0675 73.7727 87.1483C73.9333 85.9318 74.2551 83.5813 74.6097 80.1532C68.7 82.6225 62.3243 84.0317 55.9195 84.4245C46.0917 85.0268 36.1901 83.2943 26.9278 79.985V79.9855Z" fill="#171829"/>
<path d="M25.5372 32.3086C27.1867 34.0867 31.2519 38.7243 33.5325 41.3993C34.1608 42.1367 34.652 42.7227 34.9236 43.0634C38.6095 34.7888 42.8909 26.1448 48.3624 18.9044C48.3652 18.9011 48.3679 18.8973 48.3706 18.8946C46.9424 17.6097 44.5864 15.9255 42.5855 15.9255C38.993 21.7335 36.4119 28.0764 33.9117 34.4248C32.3932 32.4698 31.0568 30.351 29.7274 28.2647C28.6035 28.7731 27.5627 29.5702 26.7212 30.5241C26.242 31.0672 25.8279 31.6608 25.4995 32.2804C25.5132 32.2875 25.5263 32.2967 25.5372 32.3086Z" fill="white"/>
<path d="M34.9236 43.0641C34.652 42.7234 34.1608 42.1368 33.5325 41.4C31.2519 38.7244 27.1868 34.0874 25.5372 32.3093C25.5263 32.2974 25.5132 32.2882 25.4995 32.2811C25.4504 32.2556 25.3881 32.2621 25.3449 32.3017C25.2897 32.3522 25.2859 32.4379 25.3373 32.4927C26.4322 33.6729 28.6057 36.1292 30.6072 38.4265C31.6081 39.5752 32.5659 40.6843 33.3249 41.5752C34.0833 42.4651 34.6455 43.1395 34.8466 43.4081C34.8755 43.4466 34.9225 43.4673 34.9711 43.4618C35.0198 43.4564 35.0607 43.426 35.0804 43.3821C35.8819 41.579 36.7114 39.7586 37.5747 37.9388C40.7011 31.3489 44.2739 24.7667 48.5805 19.0684C48.6258 19.0087 48.6133 18.9235 48.5532 18.879C48.4963 18.8367 48.4177 18.8448 48.3707 18.8958C48.3679 18.8991 48.3652 18.9023 48.3625 18.9056C42.8915 26.146 38.6095 34.7901 34.9236 43.0646V43.0641Z" fill="white"/>
<path d="M54.6409 33.2681C54.659 33.1954 54.6142 33.1222 54.5409 33.1048C54.4677 33.0875 54.3945 33.1319 54.3765 33.2041C54.3585 33.2779 54.3393 33.3517 54.3202 33.425C52.4466 40.6192 45.8682 45.9296 38.0385 45.9296C33.3937 45.9296 29.1898 44.0609 26.1459 41.0386C23.102 38.0158 21.2197 33.8411 21.2197 29.2274C21.2197 26.3343 21.96 23.617 23.2637 21.2453C23.2948 21.1883 23.3265 21.1319 23.3582 21.0755C23.3948 21.0104 23.3719 20.9279 23.3063 20.8916C23.2407 20.8552 23.1577 20.878 23.1205 20.9431C21.7355 23.3935 20.947 26.2182 20.947 29.228C20.947 31.3029 21.3218 33.2909 22.0081 35.1282C24.422 41.5943 30.6885 46.2009 38.039 46.2009C41.2682 46.2009 44.2875 45.3116 46.8631 43.7668C50.6988 41.4662 53.5498 37.7115 54.6415 33.2687L54.6409 33.2681Z" fill="#366702"/>
</svg>
