<svg width="24" height="24" viewBox="0 0 24 24" fill="none" xmlns="http://www.w3.org/2000/svg">
<path fill-rule="evenodd" clip-rule="evenodd" d="M10.0163 2.49893C11.2576 1.84378 12.7424 1.84378 13.9837 2.49893L20.4837 5.92949C21.8777 6.66519 22.75 8.11193 22.75 9.68812V17.8C22.75 20.1472 20.8472 22.05 18.5 22.05H5.5C3.15279 22.05 1.25 20.1472 1.25 17.8V9.68812C1.25 8.11193 2.12232 6.66519 3.51628 5.92949L10.0163 2.49893ZM7.38586 9.3569C7.03068 9.14379 6.56998 9.25896 6.35687 9.61415C6.14376 9.96934 6.25893 10.43 6.61412 10.6431L10.0706 12.717C11.2582 13.4296 12.7418 13.4296 13.9293 12.717L17.3859 10.6431C17.741 10.43 17.8562 9.96934 17.6431 9.61415C17.43 9.25896 16.9693 9.14379 16.6141 9.3569L13.1576 11.4308C12.4451 11.8583 11.5549 11.8583 10.8424 11.4308L7.38586 9.3569Z" fill="#2DADBE"/>
</svg>
