<svg width="24" height="24" viewBox="0 0 24 24" fill="none" xmlns="http://www.w3.org/2000/svg">
<path d="M7.38586 9.3569C7.03068 9.14379 6.56998 9.25896 6.35687 9.61415C6.14376 9.96934 6.25893 10.43 6.61412 10.6431L10.0706 12.717C11.2582 13.4296 12.7418 13.4296 13.9293 12.717L17.3859 10.6431C17.741 10.43 17.8562 9.96934 17.6431 9.61415C17.43 9.25896 16.9693 9.14379 16.6141 9.3569L13.1576 11.4308C12.4451 11.8583 11.5549 11.8583 10.8424 11.4308L7.38586 9.3569Z" fill="black"/>
<path fill-rule="evenodd" clip-rule="evenodd" d="M13.9837 2.49893C12.7424 1.84378 11.2576 1.84378 10.0163 2.49893L3.51628 5.92949C2.12232 6.66519 1.25 8.11193 1.25 9.68812V17.8C1.25 20.1472 3.15279 22.05 5.5 22.05H18.5C20.8472 22.05 22.75 20.1472 22.75 17.8V9.68812C22.75 8.11193 21.8777 6.66519 20.4837 5.92949L13.9837 2.49893ZM10.7164 3.82551C11.5196 3.40159 12.4804 3.40159 13.2836 3.82551L19.7836 7.25606C20.6856 7.73211 21.25 8.66824 21.25 9.68812V17.8C21.25 19.3188 20.0188 20.55 18.5 20.55H5.5C3.98122 20.55 2.75 19.3188 2.75 17.8V9.68812C2.75 8.66823 3.31444 7.73211 4.21641 7.25607L10.7164 3.82551Z" fill="black"/>
</svg>
