<svg width="36" height="36" viewBox="0 0 36 36" fill="none" xmlns="http://www.w3.org/2000/svg">
<rect x="0.350012" y="0.350012" width="34.7" height="34.7" rx="17.35" fill="#E3E4FF"/>
<rect x="0.350012" y="0.350012" width="34.7" height="34.7" rx="17.35" stroke="#5C61F2" stroke-width="0.7"/>
<path d="M25.1079 13.3261C24.8939 12.3424 24.128 11.5703 23.1566 11.3579C22.6389 11.2447 22.1204 11.148 21.601 11.0677C21.5797 10.7593 21.5549 10.4553 21.5276 10.1625C21.4151 8.96204 20.5119 8.00251 19.3307 7.82891C18.158 7.65704 17.2437 7.65704 16.0711 7.82891C14.8899 8.00251 13.9858 8.96204 13.8732 10.1634C13.846 10.4562 13.8212 10.7602 13.7999 11.0685C13.2805 11.1497 12.762 11.2456 12.2443 11.3587C11.272 11.5712 10.5062 12.3442 10.293 13.3279C9.50236 16.9639 9.50236 20.4998 10.293 24.1367C10.5062 25.1204 11.272 25.8933 12.2443 26.1058C14.0549 26.5014 15.8775 26.7 17.7 26.7C19.5226 26.7 21.346 26.5022 23.1557 26.1058C24.1271 25.8933 24.893 25.1204 25.1071 24.1367C25.8977 20.5006 25.8977 16.9648 25.1071 13.3279L25.1079 13.3261ZM15.5713 10.3258C15.6088 9.92762 15.9218 9.59597 16.3158 9.53811C17.3256 9.38956 18.0761 9.38956 19.0859 9.53811C19.4799 9.59597 19.7929 9.92762 19.8304 10.3258C19.8467 10.4985 19.862 10.6773 19.8756 10.8587C18.4266 10.7334 16.9751 10.7334 15.5261 10.8587C15.5406 10.6773 15.5551 10.4985 15.5713 10.3258ZM23.4423 23.7635C23.3724 24.0848 23.1131 24.3465 22.7967 24.4156C19.416 25.1549 15.9858 25.1549 12.6042 24.4156C12.2878 24.3465 12.0285 24.0848 11.9586 23.7644C11.2226 20.378 11.2226 17.0848 11.9586 13.6984C12.0285 13.378 12.2878 13.1163 12.6042 13.0472C12.9718 12.9669 13.3394 12.896 13.7069 12.833C13.6754 13.7053 13.6694 14.4852 13.6873 14.9775C13.7052 15.4542 14.089 15.8239 14.5717 15.8083C15.0425 15.7902 15.4092 15.3903 15.3922 14.9127C15.3734 14.3988 15.3845 13.5386 15.4237 12.6024C16.1819 12.529 16.941 12.4918 17.7009 12.4918C18.4608 12.4918 19.2198 12.529 19.978 12.6024C20.0172 13.5386 20.0283 14.3988 20.0095 14.9127C19.9916 15.3894 20.3592 15.7902 20.83 15.8083C20.8411 15.8083 20.8513 15.8083 20.8624 15.8083C21.3187 15.8083 21.6973 15.4421 21.7136 14.9766C21.7315 14.4843 21.7255 13.7036 21.6939 12.8321C22.0624 12.8952 22.4299 12.966 22.7975 13.0463C23.1139 13.1154 23.3732 13.3771 23.4431 13.6975C24.1792 17.084 24.1783 20.3771 23.4423 23.7635Z" fill="#5C61F2"/>
</svg>
