<svg width="36" height="36" viewBox="0 0 36 36" fill="none" xmlns="http://www.w3.org/2000/svg">
<rect x="0.349951" y="0.350012" width="34.7" height="34.7" rx="17.35" fill="#FFF0CC"/>
<rect x="0.349951" y="0.350012" width="34.7" height="34.7" rx="17.35" stroke="#FFB600" stroke-width="0.7"/>
<path d="M13.979 10.7C12.4378 10.7 11.1883 11.9472 11.1883 13.4857V14.2286C11.1883 14.5363 11.4382 14.7857 11.7465 14.7857C12.0547 14.7857 12.3046 14.5363 12.3046 14.2286V13.4857C12.3046 12.5626 13.0543 11.8143 13.979 11.8143H14.7232C15.0315 11.8143 15.2813 11.5649 15.2813 11.2572C15.2813 10.9495 15.0315 10.7 14.7232 10.7H13.979Z" fill="#FFB600"/>
<path d="M20.6767 10.7C20.3684 10.7 20.1186 10.9495 20.1186 11.2572C20.1186 11.5649 20.3684 11.8143 20.6767 11.8143H21.4209C22.3456 11.8143 23.0953 12.5626 23.0953 13.4857V14.2286C23.0953 14.5363 23.3452 14.7857 23.6534 14.7857C23.9617 14.7857 24.2116 14.5363 24.2116 14.2286V13.4857C24.2116 11.9472 22.9621 10.7 21.4209 10.7H20.6767Z" fill="#FFB600"/>
<path d="M12.3046 20.1714C12.3046 19.8637 12.0547 19.6143 11.7465 19.6143C11.4382 19.6143 11.1883 19.8637 11.1883 20.1714V20.9143C11.1883 22.4528 12.4378 23.7 13.979 23.7H14.7232C15.0315 23.7 15.2813 23.4506 15.2813 23.1429C15.2813 22.8352 15.0315 22.5857 14.7232 22.5857H13.979C13.0543 22.5857 12.3046 21.8374 12.3046 20.9143V20.1714Z" fill="#FFB600"/>
<path d="M24.2116 20.1714C24.2116 19.8637 23.9617 19.6143 23.6534 19.6143C23.3452 19.6143 23.0953 19.8637 23.0953 20.1714V20.9143C23.0953 21.8374 22.3456 22.5857 21.4209 22.5857H20.6767C20.3684 22.5857 20.1186 22.8352 20.1186 23.1429C20.1186 23.4506 20.3684 23.7 20.6767 23.7H21.4209C22.9621 23.7 24.2116 22.4528 24.2116 20.9143V20.1714Z" fill="#FFB600"/>
<path d="M10.2581 17.3857C9.94984 17.3857 9.69995 17.6352 9.69995 17.9429C9.69995 18.2506 9.94984 18.5 10.2581 18.5H25.1418C25.4501 18.5 25.7 18.2506 25.7 17.9429C25.7 17.6352 25.4501 17.3857 25.1418 17.3857H10.2581Z" fill="#FFB600"/>
</svg>
