<svg width="36" height="36" viewBox="0 0 36 36" fill="none" xmlns="http://www.w3.org/2000/svg">
<rect x="0.350012" y="0.350012" width="34.7" height="34.7" rx="17.35" fill="#E9FCFF"/>
<rect x="0.350012" y="0.350012" width="34.7" height="34.7" rx="17.35" stroke="#2DADBE" stroke-width="0.7"/>
<path fill-rule="evenodd" clip-rule="evenodd" d="M13.5343 10.0047C11.4895 8.93782 9.16409 10.8448 9.80988 13.0589L11.1878 17.7831C11.2175 17.885 11.2175 17.9932 11.1878 18.095L9.80988 22.8192C9.16409 25.0334 11.4895 26.9403 13.5343 25.8734L24.293 20.2602C26.169 19.2814 26.169 16.5967 24.293 15.6179L13.5343 10.0047ZM12.3685 18.5728H16.8541C17.2041 18.5728 17.4878 18.2892 17.4878 17.9392C17.4878 17.5893 17.2041 17.3056 16.8541 17.3056H12.3686L11.0265 12.7041C10.6932 11.5617 11.893 10.5778 12.9481 11.1282L23.7068 16.7414C24.6747 17.2465 24.6747 18.6317 23.7068 19.1367L12.9481 24.7499C11.893 25.3004 10.6932 24.3165 11.0265 23.1741L12.3685 18.5728Z" fill="#2DADBE"/>
</svg>
