<svg width="282" height="85" viewBox="0 0 282 85" fill="none" xmlns="http://www.w3.org/2000/svg">
<path d="M100.708 22.2467C104.448 24.4101 111.143 25.8633 114.719 25.8633C116.216 25.8633 117.13 25.612 117.13 25.073C117.13 22.4106 98.1728 23.9913 98.1728 12.1033C98.1728 6.57453 103.745 2 113.43 2C123.657 2 128.02 5.57659 128.02 5.57659L123.697 13.8916C120.412 12.3546 115.258 11.4404 112.348 11.4404C110.975 11.4404 110.105 11.648 110.105 12.0632C110.105 14.3906 129.022 12.8099 129.022 25.4481C129.022 30.2303 124.575 35.5077 114.264 35.5077C103.953 35.5077 97.011 32.1387 97.011 32.1387L100.711 22.243L100.708 22.2467Z" fill="black"/>
<path d="M132.384 3.16545H151.632C158.989 3.16545 164.518 7.52873 164.518 15.8437C164.518 24.1587 158.989 28.7296 151.632 28.7296H144.068V34.3422H132.427L132.387 3.1618L132.384 3.16545ZM144.024 13.1449V18.7574H149.636C151.549 18.7574 152.838 17.927 152.838 15.9311C152.838 13.9353 151.549 13.1449 149.636 13.1449H144.024Z" fill="black"/>
<path d="M167.428 3.16565H179.069V34.346H167.428V3.16565Z" fill="black"/>
<path d="M182.853 3.16565H199.566C208.836 3.16565 214.991 8.48682 214.991 18.9215C214.991 29.3563 208.839 34.346 199.566 34.346H182.853V3.16565ZM194.493 12.3111V25.197H197.651C201.475 25.197 203.303 23.0335 203.303 18.6702C203.303 14.307 201.475 12.3111 197.651 12.3111H194.493Z" fill="black"/>
<path d="M217.897 3.16565H245.126V13.1415H229.538V15.0135H244.048V22.4981H229.538V24.3702H245.126V34.346H217.897V3.16565Z" fill="black"/>
<path d="M248.451 3.16565H268.53C275.432 3.16565 280.793 6.61476 280.793 14.5146C280.793 19.5881 278.051 22.7895 274.307 24.494L281.456 34.346H267.944L263.122 26.8614H260.088V34.346H248.448V3.16565H248.451ZM260.091 13.1451V17.3008H266.662C268.115 17.3008 269.113 16.7618 269.113 15.2211C269.113 13.6805 268.115 13.1415 266.662 13.1415H260.091V13.1451Z" fill="black"/>
<path d="M102.074 64.4374C107.198 67.3984 116.369 69.3907 121.264 69.3907C123.314 69.3907 124.567 69.0483 124.567 68.3089C124.567 64.6632 98.5989 66.8266 98.5989 50.5426C98.5989 42.9669 106.229 36.7025 119.498 36.7025C133.509 36.7025 139.486 41.6011 139.486 41.6011L133.563 52.9901C129.065 50.8813 122.003 49.632 118.015 49.632C116.136 49.632 114.941 49.9161 114.941 50.488C114.941 53.6785 140.851 51.5114 140.851 68.8261C140.851 75.3747 134.758 82.608 120.634 82.608C106.51 82.608 97 77.9934 97 77.9934L102.07 64.441L102.074 64.4374Z" fill="black"/>
<path d="M145.47 38.2977H182.772V51.9666H161.415V54.5307H181.29V64.7833H161.415V67.3474H182.772V81.0163H145.47V38.305V38.2977Z" fill="black"/>
<path d="M187.325 38.2977H203.271L216.94 57.0911V38.2977H232.885V81.0091H216.94L203.271 62.7292V81.0091H187.325V38.2977Z" fill="black"/>
<path d="M237.437 38.2977H260.332C273.032 38.2977 281.46 45.5856 281.46 59.881C281.46 74.1764 273.032 81.0091 260.332 81.0091H237.437V38.2977ZM253.383 50.8266V68.4801H257.71C262.951 68.4801 265.453 65.519 265.453 59.5386C265.453 53.5582 262.947 50.8266 257.71 50.8266H253.383Z" fill="black"/>
<path d="M5.27313 84.323C5.58459 84.1745 37.7376 75.0045 40.5227 61.7999C41.917 55.2809 34.6266 53.1007 26.3874 50.4641C15.6745 47.0417 2.47359 43.0108 2.16213 28.2525C2.01364 19.0825 11.6291 12.1036 29.8098 7.90971C39.1283 5.73309 48.599 4.79871 53.7236 4.48724H5.27313C2.3251 4.49087 0 6.81597 0 9.76399V79.3432C0 81.9798 2.01364 84.16 4.50534 84.4715L5.27675 84.323H5.27313Z" fill="#23A9BB"/>
<path d="M85.7318 4.50531H78.7384V13.2045H62.8973V4.50531H58.5404L57.606 4.6538C57.1461 4.80229 17.9996 14.9067 13.038 26.8654C12.2666 28.7306 12.415 30.5993 13.4979 32.45C16.6089 37.7231 24.5222 39.2804 32.7615 41.0007C44.8832 43.4888 57.4612 45.966 56.2153 60.2643C54.658 79.0534 30.2843 83.5551 15.5297 84.4895H85.5688C88.5168 84.4895 90.8419 82.1644 90.8419 79.2164V9.77844C91.0049 6.83041 88.6798 4.50531 85.7318 4.50531Z" fill="#23A9BB"/>
<g opacity="0.25">
<path d="M37.9585 43.0433C37.7267 43.0433 37.3754 43.0434 37.1437 42.9311L31.1933 40.9283C30.6102 40.7038 30.0271 40.2619 29.7953 39.7042C29.5635 39.0378 29.5635 38.4801 29.7953 37.8101L33.4134 27.9012L34.1123 28.1258L30.4943 38.0346C30.3784 38.4801 30.3784 38.9255 30.6102 39.2587C30.842 39.7042 31.1933 39.9251 31.5446 40.1496L37.495 42.1524C38.4294 42.4856 39.3601 42.0402 39.7114 41.1492L44.3797 28.5676C44.731 27.6767 44.2638 26.7858 43.3294 26.4526L37.3791 24.4498C36.9119 24.3375 36.4447 24.3375 36.097 24.5621C35.6298 24.7866 35.398 25.1198 35.1626 25.5653L34.4636 25.3407C34.6954 24.783 35.1626 24.2289 35.7457 24.0043C36.3288 23.7798 37.0278 23.6711 37.6109 23.8921L43.5612 25.8948C44.8433 26.3403 45.5459 27.6767 45.0787 28.9008L40.4104 41.4824C39.9432 42.3733 39.0124 43.0433 37.9585 43.0433Z" fill="white"/>
<path d="M38.5416 39.7005H38.3098L32.3595 37.6978C32.0082 37.5855 31.7764 37.14 31.8923 36.8068L35.9775 25.7861C36.0934 25.453 36.5606 25.2284 36.9119 25.3407L42.8623 27.3435C43.0941 27.4557 43.2136 27.568 43.2136 27.6767C43.3295 27.7889 43.3295 28.0098 43.2136 28.2344L39.1283 39.2551C39.2442 39.4796 39.0125 39.5883 38.8966 39.5883C38.7807 39.7005 38.6648 39.7005 38.5453 39.7005H38.5416ZM32.7072 37.0314L38.5416 39.0342L42.6269 28.0135L36.6765 26.0107L32.7072 37.0314Z" fill="white"/>
<path d="M35.7421 40.1497C35.858 39.7042 35.6262 39.2587 35.2749 39.1465C34.8077 39.0342 34.3405 39.2587 34.2246 39.5919C34.1087 40.0374 34.3405 40.4829 34.6918 40.5951C35.0431 40.8161 35.5067 40.5951 35.7421 40.1497Z" fill="white"/>
<path d="M18.2387 73.8853L10.7708 57.5155L13.2227 51.5035L18.4741 49.2762L18.8217 49.834L13.8058 52.0613L11.5893 57.5155L18.59 72.8822L33.0585 66.7579L24.3086 47.498L21.7408 48.6098L21.3895 47.9434L24.6562 46.6071L34.1087 67.0911L18.2387 73.8853Z" fill="white"/>
<path d="M11.1221 57.961C11.0062 57.961 10.8903 57.961 10.8903 57.8487C10.7744 57.7364 10.7744 57.6242 10.7744 57.5155L13.1068 51.7245C13.1068 51.6122 13.3386 51.4999 13.4581 51.4999C13.5776 51.4999 13.6899 51.6122 13.8094 51.7245L15.6745 55.7337V55.9582C15.6745 56.0705 15.5586 56.0705 15.4428 56.1827L11.2416 57.9646H11.1257L11.1221 57.961ZM13.4545 52.619L11.7052 56.8491L14.7402 55.5127L13.4581 52.619H13.4545Z" fill="white"/>
<path d="M15.4391 59.9674L15.2037 59.2973L25.1234 55.0673L25.4747 55.7336L15.4391 59.9674Z" fill="white"/>
<path d="M17.3079 64.0851L17.0725 63.4188L26.9886 59.1887L27.3399 59.855L17.3079 64.0851Z" fill="white"/>
<path d="M19.173 68.0943L18.9413 67.4243L28.8573 63.1942L29.0891 63.8642L19.173 68.0943Z" fill="white"/>
<path d="M18.3582 73.7731C18.2423 73.7731 18.0069 73.6608 18.0069 73.5485C18.0069 73.4363 18.0069 73.2153 18.2387 73.1031L33.0548 66.7579L26.0542 51.3913V51.0581C26.1314 50.9832 26.2485 50.9458 26.4055 50.9458L33.8733 50.6126C33.9892 50.6126 34.1051 50.6126 34.1051 50.7249C34.1824 50.7997 34.221 50.8746 34.221 50.9494L35.3872 72.549C35.3872 72.6612 35.3872 72.7735 35.2713 72.7735C35.194 72.8483 35.1168 72.8858 35.0395 72.8858L18.3545 73.7767L18.3582 73.7731ZM26.9886 51.6158L33.9892 66.7579V66.9825C33.9892 67.0947 33.8733 67.0947 33.7574 67.207L20.3392 72.8858L34.5723 72.2194L33.522 51.2862L26.9886 51.6194V51.6158Z" fill="white"/>
<path d="M48.2259 43.2643L47.0598 40.3706L62.5785 34.5796L63.7447 37.3646L61.5283 38.2556L61.2928 37.5892L62.8103 37.0314L62.1113 35.4705L47.9905 40.8161L48.5772 42.3734L59.1959 38.3678L59.4277 39.0342L48.2259 43.2643Z" fill="white"/>
<path d="M53.9445 40.7038L53.0101 38.4765L53.7091 38.2556L54.5276 40.4829L53.9445 40.7038Z" fill="white"/>
<path d="M46.9439 42.4856L46.5926 41.8193L51.4927 40.0374L51.7281 40.5915L46.9439 42.4856Z" fill="white"/>
<path d="M16.6053 8.07993L16.1381 7.63809L17.891 5.96851L18.3582 6.41035L16.6053 8.07993Z" fill="white"/>
<path d="M12.5237 12.0891L11.9406 11.6436L13.6899 9.97406L14.273 10.4195L12.5237 12.0891Z" fill="white"/>
<path d="M13.6899 8.07993L11.9406 6.41035L12.5237 5.96851L14.273 7.63809L13.6899 8.07993Z" fill="white"/>
<path d="M17.891 12.0891L16.1381 10.4195L16.6053 9.97406L18.3582 11.6436L17.891 12.0891Z" fill="white"/>
<path d="M6.80508 70.4339L6.33789 69.8762L8.08715 68.2066L8.55434 68.7607L6.80508 70.4339Z" fill="white"/>
<path d="M2.71987 74.3308L2.13678 73.8854L3.88966 72.2122L4.47275 72.6576L2.71987 74.3308Z" fill="white"/>
<path d="M3.88966 70.4339L2.13678 68.7607L2.71987 68.2066L4.47275 69.8762L3.88966 70.4339Z" fill="white"/>
<path d="M8.08715 74.3308L6.33789 72.6576L6.80508 72.2122L8.55434 73.8854L8.08715 74.3308Z" fill="white"/>
<path d="M17.891 37.2524L15.2073 34.5796L17.891 31.9068L20.5746 34.5796L17.891 37.2524ZM16.2576 34.5796L17.891 36.2492L19.5243 34.5796L17.891 33.0186L16.2576 34.5796Z" fill="white"/>
<path d="M81.0128 81.3423L78.3291 78.6695L81.0128 75.9968L83.6964 78.6695L81.0128 81.3423ZM79.2635 78.7818L80.8969 80.4514L82.5302 78.7818L80.8969 77.1122L79.2635 78.7818Z" fill="white"/>
<path d="M37.6073 75.4427L34.9236 72.7699L37.6073 70.0971L40.2909 72.7699L37.6073 75.4427ZM35.9739 72.7699L37.6073 74.4395L39.2406 72.7699L37.6073 71.1003L35.9739 72.7699Z" fill="white"/>
<path d="M8.43845 65.3129C7.27228 65.3129 6.33789 64.422 6.33789 63.3101C6.33789 62.1983 7.27228 61.3074 8.43845 61.3074C9.60462 61.3074 10.539 62.1983 10.539 63.3101C10.539 64.3133 9.60462 65.3129 8.43845 65.3129ZM8.43845 61.8579C7.62358 61.8579 7.04049 62.4156 7.04049 63.1943C7.04049 63.9729 7.62358 64.5306 8.43845 64.5306C9.25332 64.5306 9.83641 63.9729 9.83641 63.1943C9.83641 62.5279 9.25332 61.8579 8.43845 61.8579Z" fill="white"/>
<path d="M42.5074 20.2197C41.3412 20.2197 40.4068 19.3288 40.4068 18.2169C40.4068 17.1051 41.3412 16.2142 42.5074 16.2142C43.6735 16.2142 44.6079 17.1051 44.6079 18.2169C44.6079 19.2201 43.6735 20.2197 42.5074 20.2197ZM42.5074 16.7647C41.6925 16.7647 41.1094 17.3224 41.1094 18.1011C41.1094 18.8797 41.6925 19.4374 42.5074 19.4374C43.3222 19.4374 43.9053 18.8797 43.9053 18.1011C43.9053 17.4347 43.3222 16.7647 42.5074 16.7647Z" fill="white"/>
<path d="M82.0631 34.5796C80.8969 34.5796 79.9625 33.6887 79.9625 32.5768C79.9625 31.465 80.8969 30.574 82.0631 30.574C83.2292 30.574 84.1636 31.465 84.1636 32.5768C84.1636 33.6887 83.2292 34.5796 82.0631 34.5796ZM82.0631 31.2404C81.2482 31.2404 80.6651 31.7982 80.6651 32.5768C80.6651 33.3555 81.2482 33.9132 82.0631 33.9132C82.8779 33.9132 83.461 33.3555 83.461 32.5768C83.461 31.7982 82.762 31.2404 82.0631 31.2404Z" fill="white"/>
<path d="M27.923 21.6647C25.9383 21.6647 23.9573 22.5557 22.5557 23.8921C21.1577 25.3407 20.4551 27.1226 20.4551 29.1253H19.7561C19.7561 27.0103 20.571 25.0039 22.0885 23.4466C23.606 21.8857 25.7065 20.9984 27.923 20.9984V21.6647Z" fill="white"/>
<path d="M28.0389 23.3343C24.888 23.4466 22.3203 26.0071 22.3203 29.0131H21.6213C21.5054 25.5616 24.4208 22.6679 28.0389 22.5557V23.3343Z" fill="white"/>
<path d="M28.0388 25.1162C25.8224 25.1162 24.0731 26.898 24.189 29.0131H23.4901C23.4901 26.5648 25.4747 24.4498 28.0425 24.4498V25.1162H28.0388Z" fill="white"/>
<path d="M29.0891 28.9044C28.9732 29.129 28.8573 29.2376 28.7378 29.4622C28.1547 30.0199 27.2204 30.0199 26.6373 29.4622C26.4055 29.2376 26.1701 28.7958 26.1701 28.459C26.1701 28.1222 26.286 27.6803 26.6373 27.4558C27.2204 26.898 28.1547 26.898 28.7378 27.4558C28.9696 27.6803 29.205 28.1222 29.205 28.459C29.0891 28.5712 29.0891 28.7922 29.0891 28.9044ZM26.8727 28.2344V28.459C26.8727 28.6835 26.9886 28.7922 27.1045 29.0167C27.4558 29.3499 27.9193 29.2413 28.1547 29.0167C28.3901 28.7922 28.3865 28.6835 28.3865 28.459C28.3865 28.2344 28.2706 28.1258 28.1547 27.9012C27.8034 27.568 27.3399 27.6767 27.1045 27.9012C26.9886 28.0135 26.9886 28.1258 26.8727 28.2344Z" fill="white"/>
<path d="M66.6601 83.6819L51.844 78.2277L52.0757 77.5577L66.1966 82.791L69.9269 73.4399L52.1953 66.7579L48.4577 76.109L49.8593 76.6668L49.6275 77.3332L47.4074 76.5581L51.7281 65.867L70.9772 72.9944L66.6601 83.6819Z" fill="white"/>
<path d="M59.0764 78.7818C58.6092 78.7818 58.142 78.6696 57.6784 78.5573C56.744 78.2241 55.9292 77.4454 55.462 76.5545C54.9948 75.6636 54.9948 74.6604 55.3461 73.6608C55.6974 72.7699 56.5123 71.9912 57.4466 71.5458C58.381 71.1003 59.4313 71.1003 60.4816 71.4335C61.416 71.7667 62.2308 72.5453 62.698 73.4363C63.1652 74.3272 63.1652 75.3304 62.8139 76.33C62.4626 77.2209 61.6478 77.9995 60.7134 78.445C60.1303 78.6659 59.6631 78.7782 59.08 78.7782L59.0764 78.7818ZM59.0764 71.879C58.6092 71.879 58.142 71.9912 57.7943 72.1035C56.9794 72.4367 56.3964 72.9944 56.161 73.7731C55.8097 74.5517 55.9292 75.334 56.2768 76.109C56.6281 76.8877 57.2112 77.4454 58.0261 77.7786C58.841 78.1118 59.6595 78.0032 60.4743 77.6664C61.2892 77.3332 61.8723 76.7754 62.1077 75.9968C62.459 75.2181 62.3395 74.4358 61.9918 73.6608C61.6405 72.8821 61.0574 72.3244 60.2426 71.9912C59.8913 71.9912 59.5436 71.879 59.0764 71.879Z" fill="white"/>
<path d="M63.8606 71.2126L58.2579 69.0975L59.4241 66.3125L65.0268 68.4275L63.8606 71.2126ZM59.1959 68.6521L63.5129 70.213L64.096 68.7644L59.779 67.2034L59.1959 68.6521Z" fill="white"/>
<path d="M62.8103 81.9001L62.1114 81.5669L66.1966 71.658L66.8956 71.8789L62.8103 81.9001Z" fill="white"/>
<path d="M56.9758 68.2066L56.2768 67.9821L56.744 66.8702L54.2922 65.9793L53.825 67.0912L53.126 66.758L53.825 65.0884L57.6784 66.537L56.9758 68.2066Z" fill="white"/>
<path d="M84.2795 28.6799L72.3787 23.4466L75.0624 17.6592L83.5805 14.541L89.6468 17.2137L88.1293 20.4406L87.5462 20.2197L88.7124 17.5469L83.5805 15.3196L75.6455 18.2133L73.3131 23.1134L83.9282 27.6767L86.8472 21.4438L87.5462 21.6647L84.2795 28.6799Z" fill="white"/>
<path d="M81.2445 20.7738L75.2942 18.2133L75.5296 17.547L80.781 19.8829L83.2292 14.7619L83.9282 15.0951L81.2445 20.7738Z" fill="white"/>
<path d="M55.2266 29.3463C54.5276 29.3463 53.8286 29.234 53.2419 29.0131C52.6589 28.7885 52.1917 28.5676 51.7245 28.3467L52.1917 27.789C52.6589 28.0135 53.0065 28.2344 53.5896 28.4553C56.5051 29.4585 59.6559 27.8976 60.7062 25.1162C61.6406 22.3311 60.1231 19.2165 57.204 18.3256C55.8061 17.8801 54.2886 17.9924 52.887 18.5501C51.4891 19.2165 50.5547 20.332 50.0875 21.6684C49.5044 23.2293 49.7362 24.8989 50.6706 26.3439L50.0875 26.6771C49.0372 25.1162 48.8054 23.2257 49.3885 21.4438C49.9716 19.8829 51.0219 18.6588 52.5393 17.8801C54.0568 17.2137 55.8061 17.1015 57.3235 17.5469C60.5903 18.6588 62.459 22.1102 61.2893 25.2284C60.2426 27.6767 57.7907 29.3499 55.223 29.3499L55.2266 29.3463Z" fill="white"/>
<path d="M54.9912 23.6711L53.0101 19.7742L53.7091 19.5497L55.3425 22.7802L59.0764 20.9983L59.4277 21.6647L54.9912 23.6711Z" fill="white"/>
<path d="M5.87071 14.3164H5.75482C5.40352 14.3164 5.05584 13.9832 4.82044 13.65L3.30296 10.644C3.18707 10.3108 3.18707 9.86538 3.41885 9.53218C3.65064 9.19899 4.00194 8.97445 4.35324 9.08672L8.31895 9.19899C8.78615 9.19899 9.13382 9.42353 9.36923 9.86538C9.60102 10.1986 9.48512 10.644 9.25334 10.9772L6.8051 13.9832C6.57332 14.2077 6.22201 14.3164 5.87071 14.3164ZM4.35686 9.7531C4.24097 9.7531 4.12508 9.86538 4.00556 9.97765C3.88967 10.0899 3.88967 10.2022 4.00556 10.3108L5.52304 13.4291C5.63893 13.5414 5.75482 13.6536 5.87434 13.6536C5.99385 13.6536 6.10612 13.6536 6.22564 13.5414L8.67387 10.5354C8.78977 10.4231 8.78977 10.3108 8.67387 10.0899C8.55798 9.97765 8.44209 9.86538 8.32257 9.86538L4.35686 9.7531Z" fill="white"/>
<path d="M79.7307 49.0553C79.1476 49.0553 78.5645 48.8307 78.2132 48.3889L76.2285 46.607C75.7614 46.1616 75.5296 45.7161 75.5296 45.0461C75.5296 44.4884 75.7614 43.9343 76.1127 43.4852L79.1476 40.4792C79.8466 39.8128 80.6651 39.476 81.7154 39.476C82.6497 39.476 83.5805 39.8092 84.2831 40.4792C85.6811 41.8156 85.6811 44.0429 84.399 45.3793L82.4143 47.3821L81.9471 46.9366L83.9318 45.0425C84.9821 43.9306 84.9821 42.2574 83.9318 41.1456C82.7656 40.0337 81.0164 40.1424 79.8466 41.1456L76.6957 44.0393C76.464 44.2638 76.2285 44.7057 76.2285 45.0425C76.2285 45.3793 76.3444 45.8211 76.6957 46.0457L78.6804 47.8275C78.9122 48.0521 79.3794 48.273 79.7307 48.273C80.082 48.273 80.5456 48.1607 80.781 47.8275L81.2482 48.273C80.9005 48.8307 80.4333 49.0553 79.7307 49.0553Z" fill="white"/>
<path d="M82.1789 43.2643L81.5959 42.7102L83.8123 40.5915L84.2795 41.037L82.1789 43.2643Z" fill="white"/>
<path d="M83.1133 46.2702C81.3641 44.7093 78.5609 42.0402 78.445 41.9279L79.0281 41.4824C79.144 41.5947 81.8276 44.1552 83.5805 45.8248L83.1133 46.2702Z" fill="white"/>
<path d="M81.5959 71.9912C79.8466 71.9912 78.0937 71.4335 76.6958 70.3216L77.1629 69.7639C78.445 70.7671 79.9625 71.2126 81.5959 71.2126C85.5616 71.2126 88.7124 68.0943 88.7124 64.3097C88.7124 60.5251 85.5616 57.4068 81.5959 57.4068C77.6301 57.4068 74.4793 60.5251 74.4793 64.3097C74.4793 65.7584 74.9465 67.0947 75.7614 68.3189L75.1783 68.7643C74.2439 67.4279 73.6608 65.9793 73.6608 64.3097C73.6608 60.0796 77.163 56.7368 81.5959 56.7368C86.0288 56.7368 89.5309 60.1883 89.5309 64.3097C89.5309 68.4311 85.9129 71.9912 81.5959 71.9912Z" fill="white"/>
<path d="M87.7816 64.4183H87.0827C87.0827 61.5246 84.6344 59.1851 81.5995 59.1851V58.5187C84.9821 58.5187 87.7853 61.0792 87.7853 64.4183H87.7816Z" fill="white"/>
<path d="M81.5959 67.2034C79.9625 67.2034 78.6804 65.9793 78.6804 64.4184C78.6804 62.8574 79.9625 61.6333 81.5959 61.6333C83.2292 61.6333 84.5113 62.8574 84.5113 64.4184C84.5113 65.9793 83.2292 67.2034 81.5959 67.2034ZM81.5959 62.3033C80.4297 62.3033 79.4953 63.1942 79.4953 64.4184C79.4953 65.5302 80.4297 66.5334 81.5959 66.5334C82.762 66.5334 83.6964 65.6425 83.6964 64.4184C83.8123 63.3029 82.762 62.3033 81.5959 62.3033Z" fill="white"/>
<path d="M59.6595 55.7337C59.3082 55.7337 58.8446 55.6214 58.4933 55.4005C57.5589 54.8428 57.3272 53.6186 58.0261 52.7277L61.2929 48.2731L64.5596 50.5004L61.2929 54.955C60.9416 55.4005 60.478 55.6214 60.0108 55.7337C59.8949 55.7337 59.779 55.7337 59.6595 55.7337ZM61.4088 49.1676L58.6092 53.0645C58.2579 53.6223 58.3774 54.4009 58.9605 54.7341C59.1959 54.9586 59.5436 54.9586 59.8949 54.9586C60.2462 54.8464 60.478 54.7341 60.7098 54.4009L63.5093 50.504L61.4088 49.1676Z" fill="white"/>
<path d="M61.0611 54.5095L58.3774 52.7313L58.8446 52.1736L61.5283 53.9554L61.0611 54.5095Z" fill="white"/>
<path d="M63.6288 50.7249L61.0611 49.0553L62.4591 47.0526L65.0268 48.7221L63.6288 50.7249ZM62.1114 48.8344L63.3934 49.7253L63.9765 48.9467L62.6945 48.0558L62.1114 48.8344Z" fill="white"/>
</g>
<path d="M74.0845 84.6344H69.1047L63.0457 20.0314H78.5899L74.0845 84.6344Z" fill="white"/>
<path d="M2.3251 28.2561C2.78505 54.2016 43.9451 46.7338 40.8486 61.8035C37.9006 75.3159 5.28762 84.475 5.28762 84.475C5.28762 84.475 53.9011 86.6516 56.0813 60.0868C58.0949 36.4845 21.1432 45.4916 13.3639 32.4391C4.65383 17.8547 57.6241 4.34235 57.6241 4.34235C57.6241 4.34235 1.85429 6.35598 2.32873 28.2561" fill="white"/>
<g opacity="0.61">
<mask id="mask0_302_2154" style="mask-type:luminance" maskUnits="userSpaceOnUse" x="3" y="6" width="46" height="78">
<path d="M48.139 6.20752H3.55646V83.5515H48.139V6.20752Z" fill="white"/>
</mask>
<g mask="url(#mask0_302_2154)">
<path d="M48.139 6.20754C47.0561 7.29041 0.767789 8.84411 7.28676 30.5958C11.0207 43.7967 55.4258 48.302 46.8931 63.3717C38.3569 78.1154 11.9551 83.5516 11.9551 83.5516C11.9551 83.5516 40.5372 73.7731 42.0945 61.5029C43.6518 45.9733 2.65105 52.4959 3.57095 28.4155C4.34236 8.38415 48.139 6.82684 48.139 6.20392" fill="#B5D0E3"/>
</g>
</g>
<path d="M78.4269 0H63.0457V13.0524H78.4269V0Z" fill="white"/>
<path d="M63.9801 0.9199H78.5899V0H63.0457V13.0379H63.9801V0.9199Z" fill="#B5D0E3"/>
<path d="M63.0457 20.0314L68.9599 84.4859L65.5338 20.0314H63.0457Z" fill="#B5D0E3"/>
</svg>
