<svg width="16" height="20" viewBox="0 0 16 20" fill="none" xmlns="http://www.w3.org/2000/svg">
<path fill-rule="evenodd" clip-rule="evenodd" d="M10.5837 1.6134L5.61958 2.62395L2.33881 7.8185L4.40151 7.23063C5.43011 6.93748 6.32787 7.98758 5.87837 8.9581L2.64045 15.9491L13.3403 5.12843L10.4857 5.75424C9.4016 5.99191 8.5685 4.80413 9.16116 3.86575L10.5837 1.6134ZM10.8586 0.0266759C11.9373 -0.192925 12.7526 0.988275 12.1648 1.91904L10.7489 4.16093L13.8446 3.48224C15.0608 3.21562 15.8766 4.69684 15.0011 5.58215L1.73569 18.9974C0.939957 19.8021 -0.374599 18.8897 0.101038 17.8627L4.288 8.82271L2.1206 9.44042C1.01711 9.75492 0.108412 8.54094 0.721132 7.5708L4.40831 1.73276C4.59026 1.44467 4.88194 1.24335 5.21582 1.17538L10.8586 0.0266759Z" fill="white"/>
</svg>
