<svg width="87" height="85" viewBox="0 0 87 85" fill="none" xmlns="http://www.w3.org/2000/svg">
<path d="M30.4921 9.36778C20.0881 15.3978 13.8451 27.4588 14.3761 39.7688C14.9071 52.0788 22.9501 64.6068 34.6431 69.9388C46.3361 75.2708 61.0061 72.4838 68.0521 62.8808C73.2061 55.8578 74.0261 46.0688 71.2681 37.2878C68.5101 28.5068 62.4641 20.7208 55.1761 14.7038C55.1741 14.7028 41.0431 3.25178 30.4921 9.36778Z" fill="#E9FCFF"/>
<path d="M84.9043 3.87581C85.2553 4.44781 80.8493 7.43382 74.5343 13.0808C68.2093 18.6888 60.1043 27.1938 53.2383 38.0598C51.2313 41.3468 49.3233 44.5738 47.7673 47.8008C46.9273 49.3838 46.2503 50.9978 45.5253 52.5398L45.2583 53.1178L44.8193 54.2128C44.5243 54.9488 44.2313 55.6788 43.9413 56.4038C43.3693 57.8208 42.8063 59.2158 42.2523 60.5868C41.2723 59.0118 40.3113 57.4678 39.3703 55.9568C39.1383 55.5818 38.9063 55.2168 38.6743 54.8678C38.4673 54.5628 38.2613 54.2608 38.0563 53.9588C37.8193 53.5958 37.5743 53.2448 37.3293 52.8998C36.3603 51.5118 35.3843 50.2268 34.4233 49.0498C32.5153 46.6818 30.6723 44.7408 29.1163 43.1638C25.9853 40.0258 23.9913 38.3338 24.2413 37.9688C24.4523 37.6508 26.9033 38.7128 30.5923 41.4668C32.4243 42.8508 34.5623 44.6598 36.7703 46.9748C37.8813 48.1248 39.0073 49.4008 40.1243 50.8028C40.4063 51.1508 40.6883 51.5068 40.9613 51.8748L41.0643 52.0108L41.0843 52.0298L41.1223 52.0658L41.1913 52.1318L41.3973 52.3198C41.4423 52.1798 41.4803 52.0108 41.5133 51.8848L41.5593 51.6998C41.5703 51.6608 41.5633 51.6648 41.5893 51.5938L41.8453 50.9838C42.5423 49.3558 43.2043 47.6538 44.0393 45.9858C45.5873 42.5888 47.5363 39.2008 49.6293 35.7758C56.7883 24.4418 65.6233 15.8978 72.6263 10.7378C79.6373 5.52781 84.6553 3.43581 84.9043 3.87581Z" fill="#519E00"/>
<path d="M45.3153 1.20183C45.2493 1.53683 42.1813 0.934827 36.6933 1.69383C31.3083 2.50883 23.0793 4.13283 15.9363 10.8058C12.3823 14.0548 9.1383 18.3628 6.8953 23.5478C4.6863 28.7258 3.53529 34.7888 3.99329 41.1268C4.39129 47.4508 6.3463 54.0208 9.8743 59.9328C13.4123 65.8338 18.5643 71.1008 24.8613 74.7968C27.9943 76.6698 31.3603 78.0288 34.7683 78.9598C38.1773 79.8928 41.6813 80.2508 45.1103 80.2208C51.9853 80.1538 58.5583 78.2058 63.9993 75.0488C69.4383 71.8668 73.6773 67.3588 76.6843 62.5648C79.7023 57.7558 81.5593 52.6838 82.5553 47.9298C83.5513 43.1608 83.7373 38.6908 83.5413 34.7898C83.3623 30.8798 82.8003 27.5278 82.2443 24.8088C81.0883 19.3718 80.0093 16.4348 80.3273 16.3118C80.5533 16.2138 82.1643 18.9428 83.8553 24.3978C84.6763 27.1258 85.5033 30.5438 85.9223 34.6058C86.3573 38.6588 86.3873 43.3698 85.5233 48.4908C84.6553 53.6028 82.8453 59.1088 79.7063 64.4118C76.5833 69.6928 72.0263 74.7788 66.0183 78.4268C60.0313 82.0338 52.7953 84.2648 45.1863 84.4038C41.3903 84.4688 37.4943 84.0908 33.6853 83.0678C29.8873 82.0488 26.1553 80.5428 22.6973 78.4788C15.7493 74.3978 10.1213 68.5958 6.2753 62.0678C2.4383 55.5178 0.391304 48.2988 0.0643042 41.3548C-0.325696 34.4068 1.08131 27.7258 3.65931 22.1058C6.26431 16.4868 9.94929 11.9138 13.9413 8.53683C17.9283 5.15283 22.2543 2.93282 26.2253 1.78182C30.1753 0.611825 33.6793 0.184825 36.5423 0.0388246C42.3103 -0.229175 45.4043 0.969827 45.3153 1.20183Z" fill="#171829"/>
<path d="M58.0342 68.7098C57.9202 68.3708 60.0332 67.7198 62.5462 65.4838C65.0602 63.3038 67.7862 59.3258 68.9222 54.3328C70.0482 49.3098 69.6942 44.5068 69.4012 41.0678C69.0832 37.6128 68.8412 35.4408 69.1462 35.3798C69.4182 35.3238 70.1832 37.3758 70.8962 40.8528C71.5762 44.3028 72.2232 49.3398 71.0042 54.8088C69.7602 60.3038 66.5052 64.5898 63.4862 66.6658C61.9842 67.7238 60.6092 68.3198 59.6242 68.5738C58.6402 68.8358 58.0712 68.8398 58.0342 68.7098Z" fill="#171829"/>
<path d="M20.7104 32.1089C20.4344 32.1149 20.1043 30.9409 20.1873 28.9959C20.2633 27.0619 20.8583 24.3739 22.2543 21.7309C23.6583 19.0919 25.5503 17.0909 27.1083 15.9429C28.6713 14.7829 29.8284 14.3979 29.9784 14.6289C30.3364 15.1539 26.6664 17.9079 24.1624 22.7419C21.5664 27.5269 21.3464 32.1099 20.7104 32.1089Z" fill="#2DADBE"/>
</svg>
