<svg width="30" height="29" viewBox="0 0 30 29" fill="none" xmlns="http://www.w3.org/2000/svg">
<path d="M2.85805e-07 22.4267C4.43651e-07 26.057 2.92737 29 6.53846 29L23.4615 29C27.0726 29 30 26.057 30 22.4267V15.8533C30 12.223 27.0726 9.28002 23.4615 9.28002L22.6923 9.28002C22.0551 9.28002 21.5385 9.79937 21.5385 10.44C21.5385 11.0807 22.0551 11.6 22.6923 11.6H23.4615C25.7981 11.6 27.6923 13.5043 27.6923 15.8533V22.4267C27.6923 24.7757 25.7981 26.68 23.4615 26.68L6.53846 26.68C4.20187 26.68 2.30769 24.7757 2.30769 22.4267L2.30769 15.8533C2.30769 13.5043 4.20187 11.6 6.53846 11.6L7.30769 11.6C7.94494 11.6 8.46154 11.0807 8.46154 10.44C8.46154 9.79937 7.94494 9.28002 7.30769 9.28002H6.53846C2.92737 9.28002 -1.57846e-07 12.223 0 15.8533L2.85805e-07 22.4267Z" fill="#2DADBE"/>
<path d="M9.64347 6.68903C9.15507 6.27751 9.09098 5.54587 9.50032 5.05487L12.8993 0.977798C13.9862 -0.325933 16.0128 -0.325933 17.0997 0.977798L20.4996 5.05474C20.909 5.54568 20.8451 6.27733 20.3567 6.68892C19.8684 7.10051 19.1406 7.03619 18.7312 6.54525L16.1538 3.45465V18.9467C16.1538 19.5873 15.6373 20.1067 15 20.1067C14.3627 20.1067 13.8462 19.5873 13.8462 18.9467V3.45379L11.269 6.54512C10.8596 7.03612 10.1319 7.10055 9.64347 6.68903Z" fill="#2DADBE"/>
</svg>
